<svg width="119" height="119" viewBox="0 0 119 119" fill="none" xmlns="http://www.w3.org/2000/svg">
<path d="M11.8938 1.63614e-06C9.71238 0.00114543 7.57327 0.601865 5.71021 1.73652C3.84714 2.87117 2.3318 4.49609 1.32978 6.43372C0.327752 8.37134 -0.122398 10.5471 0.0285168 12.7233C0.179432 14.8994 0.925605 16.9923 2.1855 18.773C3.44539 20.5538 5.17052 21.954 7.17237 22.8206C9.17422 23.6872 11.3758 23.9869 13.5364 23.6869C15.6971 23.387 17.7337 22.4989 19.4238 21.1197C21.1139 19.7405 22.3923 17.9233 23.1194 15.8667H35.6938C38.2983 15.8667 40.8774 16.3797 43.2837 17.3764C45.6899 18.3731 47.8764 19.834 49.7181 21.6757C51.5597 23.5174 53.0207 25.7038 54.0174 28.1101C55.0141 30.5164 55.5271 33.0955 55.5271 35.7V83.3C55.5271 90.6642 58.4525 97.7267 63.6598 102.934C68.867 108.141 75.9296 111.067 83.2938 111.067H95.8681C96.8038 113.713 98.645 115.944 101.066 117.364C103.488 118.785 106.333 119.303 109.1 118.829C111.867 118.354 114.376 116.916 116.186 114.77C117.995 112.624 118.988 109.907 118.988 107.1C118.988 104.293 117.995 101.576 116.186 99.4298C114.376 97.2836 111.867 95.8461 109.1 95.3714C106.333 94.8967 103.488 95.4154 101.066 96.8357C98.645 98.2561 96.8038 100.487 95.8681 103.133H83.2938C78.0336 103.133 72.989 101.044 69.2695 97.3243C65.55 93.6048 63.4604 88.5601 63.4604 83.3V35.7C63.4604 28.3358 60.535 21.2733 55.3278 16.066C50.1205 10.8587 43.0579 7.93334 35.6938 7.93334H23.1194C22.2988 5.61222 20.7784 3.60275 18.7679 2.18189C16.7574 0.761028 14.3557 -0.00128901 11.8938 1.63614e-06Z" fill="url(#paint0_linear)"/>
<defs>
<linearGradient id="paint0_linear" x1="59.4938" y1="0" x2="59.4938" y2="119" gradientUnits="userSpaceOnUse">
<stop stop-color="#381AF1"/>
<stop offset="1" stop-color="#EF33DC"/>
</linearGradient>
</defs>
</svg>
