<svg width="159" height="133" viewBox="0 0 159 133" fill="none" xmlns="http://www.w3.org/2000/svg">
<path d="M146.044 40.3578C131.52 1.27656 83.9891 18.7047 79.5 38.2453C73.4266 17.3844 27.2156 1.80469 12.9563 40.3578C-2.88749 83.1359 73.9547 121.425 79.5 127.763C85.0453 122.745 161.888 82.3438 146.044 40.3578Z" fill="#FF5A79"/>
<path d="M153.437 30.8516C151.853 25.8344 149.212 21.3453 145.516 17.6484C142.083 13.9516 137.594 11.0469 133.105 9.19844C130.728 8.14219 128.352 7.61407 125.975 7.08594C124.655 6.82188 123.598 6.82188 122.278 6.55782H118.581L121.75 8.14219L124.919 9.72657C127.031 10.7828 129.144 11.8391 130.992 13.1594C134.953 15.5359 138.386 18.4406 141.555 21.6094C144.723 24.7781 147.1 28.475 149.477 32.7C150.533 34.8125 151.589 36.925 152.381 39.0375C152.909 40.0938 153.173 41.4141 153.702 42.4703L155.022 45.9031C155.286 44.5828 155.286 43.2625 155.286 42.2062C155.286 40.8859 155.286 39.5656 155.022 38.5094C154.758 35.8688 154.23 33.2281 153.437 30.8516Z" fill="#FF5A79"/>
<path d="M158.719 23.7219C158.455 21.8734 158.191 20.025 157.662 18.1766C156.606 14.4797 154.494 11.0469 151.853 8.14219C149.212 5.2375 146.044 3.125 142.611 2.06875C140.762 1.54062 139.178 1.0125 137.33 0.748437C136.537 0.748437 135.481 0.484375 134.689 0.484375C133.897 0.484375 132.841 0.484375 132.048 0.748437C132.841 1.27656 133.633 1.54062 134.425 2.06875C134.953 2.33281 135.745 2.86094 136.537 3.125C138.122 3.91719 139.442 4.70937 140.762 5.76562C143.403 7.61406 146.044 9.72656 148.156 11.8391C150.269 14.2156 152.117 16.8563 153.966 19.7609C154.758 21.0813 155.55 22.6656 156.342 24.25C156.606 25.0422 157.134 25.8344 157.398 26.6266C157.662 27.4187 158.191 28.2109 158.455 29.2672C158.719 28.2109 158.719 27.4187 158.719 26.3625V23.7219Z" fill="#FF5A79"/>
<path d="M6.35468 39.0375C7.14686 36.925 8.20311 34.5484 9.25936 32.7C11.3719 28.475 14.0125 24.7781 17.1812 21.6094C20.35 18.4406 23.7828 15.5359 27.7437 13.1594C29.5922 11.8391 31.7047 10.7828 33.8172 9.72657L36.9859 8.14219L40.1547 6.55782H36.4578C35.1375 6.55782 34.0812 6.82188 32.7609 7.08594C30.3844 7.61407 28.0078 8.14219 25.6312 9.19844C21.1422 11.0469 16.9172 13.9516 13.4844 17.6484C10.0515 21.3453 7.14686 25.8344 5.56249 30.8516C4.7703 33.2281 4.24218 35.8688 3.97811 38.2453C3.71405 39.5656 3.71405 40.8859 3.71405 41.9422C3.71405 43.2625 3.71405 44.5828 3.97811 45.6391L5.29843 42.2062C5.56249 41.15 5.82655 40.0938 6.35468 39.0375Z" fill="#FF5A79"/>
<path d="M10.8438 12.1031C12.9563 9.72655 15.5969 7.61406 18.2375 5.76562C19.5578 4.97343 21.1422 3.91718 22.4625 3.12499C23.2547 2.59687 24.0469 2.33281 24.8391 1.80468C25.6313 1.27656 26.4234 1.01249 27.2156 0.484369C26.4234 0.484369 25.3672 0.220306 24.575 0.220306C23.7828 0.220306 22.7266 0.220306 21.9344 0.484369C20.0859 0.748431 18.5016 1.27656 16.6531 1.80468C12.9563 3.38906 9.7875 5.50155 7.14688 8.14218C4.50625 11.0469 2.39375 14.4797 1.3375 18.1766C0.809375 20.025 0.545313 21.8734 0.28125 23.7219V26.6266C0.28125 27.6828 0.28125 28.475 0.545312 29.5312C0.809375 28.7391 1.3375 27.9469 1.60156 26.8906C2.12969 25.8344 2.39375 25.0422 2.92188 24.25C3.71406 22.6656 4.50625 21.0812 5.29844 19.7609C6.88281 16.8562 8.73125 14.2156 10.8438 12.1031Z" fill="#FF5A79"/>
<path d="M15.5969 88.9453L15.3328 89.4734C16.6531 93.4344 18.7656 96.6031 20.8781 99.7719C22.9906 102.941 25.6313 105.581 28.2719 107.958C30.9125 110.334 33.8172 112.711 36.9859 114.823C40.1547 116.936 43.5875 118.52 47.5485 119.577L47.8125 119.048C42.5313 113.767 37.25 108.75 31.9688 103.733C26.4235 98.9797 21.1422 93.6984 15.5969 88.9453Z" fill="#FF5A79"/>
<path d="M4.50625 96.8672L4.24219 97.3953C6.09062 101.884 8.46719 105.581 11.1078 109.014C13.7484 112.447 16.6531 115.616 19.8219 118.52C22.9906 121.425 26.1594 124.066 29.8562 126.706C33.5531 129.083 37.25 131.459 41.7391 132.78L42.0031 132.252C35.9297 126.178 29.5922 120.369 23.5188 114.295C17.1813 108.486 10.8438 102.412 4.50625 96.8672Z" fill="#FF5A79"/>
<path d="M130.992 107.958C133.633 105.317 136.273 102.677 138.386 99.7719C140.498 96.8672 142.611 93.4344 143.931 89.4734L143.667 88.9453C138.122 93.6984 132.841 98.9797 127.295 103.733C122.014 108.75 116.733 113.767 111.452 119.048L111.716 119.577C115.677 118.52 119.109 116.672 122.278 114.823C125.447 112.711 128.088 110.334 130.992 107.958Z" fill="#FF5A79"/>
<path d="M135.481 114.295C129.408 120.369 123.07 126.178 116.997 132.252L117.261 132.78C121.75 131.195 125.447 129.083 129.144 126.706C132.841 124.33 136.009 121.689 139.178 118.52C142.347 115.616 145.252 112.447 147.892 109.014C150.533 105.581 152.909 101.884 154.758 97.3953L154.494 96.8672C148.156 102.412 141.819 108.486 135.481 114.295Z" fill="#FF5A79"/>
</svg>
