<svg width="35" height="31" viewBox="0 0 35 31" fill="none" xmlns="http://www.w3.org/2000/svg">
<path d="M0 15.5C0 19.6109 1.58035 23.5533 4.3934 26.4602C7.20644 29.367 11.0218 31 15 31C18.9833 31 22.8 29.3811 25.6667 26.5222L23.1667 23.9389C22.117 25.0866 20.8507 25.9998 19.4461 26.6218C18.0414 27.2439 16.5282 27.5617 15 27.5556C4.6 27.5556 -0.599999 14.57 6.75 6.975C14.1 -0.619999 26.6667 4.77056 26.6667 15.5H21.6667L28.3333 22.3889H28.5L35 15.5H30C30 11.3891 28.4196 7.44666 25.6066 4.53984C22.7936 1.63303 18.9782 0 15 0C11.0218 0 7.20644 1.63303 4.3934 4.53984C1.58035 7.44666 0 11.3891 0 15.5Z" fill="url(#paint0_linear)"/>
<defs>
<linearGradient id="paint0_linear" x1="7.36923" y1="3.37112" x2="35.2644" y2="31.0006" gradientUnits="userSpaceOnUse">
<stop stop-color="#F8164C"/>
<stop offset="1" stop-color="#F95E9F"/>
</linearGradient>
</defs>
</svg>
