<svg width="34" height="34" viewBox="0 0 34 34" fill="none" xmlns="http://www.w3.org/2000/svg">
<path d="M26.0006 22.6667C25.3645 22.6691 24.7354 22.8 24.1511 23.0516C23.5669 23.3031 23.0395 23.6701 22.6006 24.1306L11.0878 18.3694C11.371 17.5107 11.371 16.5837 11.0878 15.725L22.6194 9.86C23.4454 10.7304 24.5656 11.2626 25.7621 11.3532C26.9586 11.4438 28.1461 11.0862 29.0937 10.3501C30.0413 9.61388 30.6813 8.55168 30.8894 7.3699C31.0974 6.18811 30.8587 4.97119 30.2195 3.95564C29.5803 2.9401 28.5863 2.19849 27.4308 1.87497C26.2753 1.55144 25.0408 1.66911 23.9672 2.2051C22.8936 2.74109 22.0576 3.65711 21.6218 4.77511C21.1859 5.89312 21.1813 7.13324 21.6089 8.25444L10.1906 14.0628C9.57388 13.3086 8.73904 12.7636 7.80047 12.5025C6.8619 12.2414 5.86554 12.277 4.94798 12.6043C4.03042 12.9317 3.23657 13.5349 2.67525 14.3311C2.11393 15.1274 1.81262 16.0777 1.81262 17.0519C1.81262 18.0262 2.11393 18.9765 2.67525 19.7728C3.23657 20.569 4.03042 21.1722 4.94798 21.4996C5.86554 21.8269 6.8619 21.8625 7.80047 21.6014C8.73904 21.3403 9.57388 20.7953 10.1906 20.0411L21.5806 25.7739C21.3881 26.2906 21.289 26.8375 21.2878 27.3889C21.2878 28.3229 21.5647 29.2358 22.0836 30.0124C22.6025 30.789 23.34 31.3942 24.2029 31.7516C25.0658 32.1091 26.0152 32.2026 26.9313 32.0204C27.8473 31.8382 28.6887 31.3884 29.3491 30.728C30.0095 30.0676 30.4593 29.2262 30.6415 28.3101C30.8237 27.3941 30.7302 26.4446 30.3728 25.5818C30.0154 24.7189 29.4101 23.9814 28.6335 23.4625C27.857 22.9436 26.944 22.6667 26.01 22.6667H26.0006Z" fill="url(#paint0_linear)"/>
<defs>
<linearGradient id="paint0_linear" x1="16.3876" y1="1.69589" x2="16.3876" y2="32.1111" gradientUnits="userSpaceOnUse">
<stop stop-color="#FF5A79"/>
<stop offset="1" stop-color="#F95E9F"/>
</linearGradient>
</defs>
</svg>
