<svg width="60" height="60" viewBox="0 0 60 60" fill="none" xmlns="http://www.w3.org/2000/svg">
<path d="M37.7529 3.26316C36.7434 2.23015 35.5376 1.40932 34.2064 0.848905C32.8751 0.288493 31.4453 -0.000195265 30.0009 -0.000195265C28.5564 -0.000195265 27.1266 0.288493 25.7954 0.848905C24.4641 1.40932 23.2583 2.23015 22.2488 3.26316L19.9161 5.65575L16.5783 5.6145C15.1334 5.5974 13.6998 5.86935 12.3616 6.41436C11.0234 6.95937 9.80767 7.76643 8.78594 8.78809C7.76422 9.80975 6.95711 11.0254 6.41206 12.3635C5.86702 13.7016 5.59505 15.1352 5.61215 16.5799L5.64966 19.9175L3.26442 22.2501C2.23134 23.2596 1.41046 24.4653 0.850008 25.7964C0.289561 27.1276 0.000854492 28.5574 0.000854492 30.0017C0.000854492 31.446 0.289561 32.8758 0.850008 34.2069C1.41046 35.5381 2.23134 36.7438 3.26442 37.7532L5.65341 40.0858L5.61215 43.4234C5.59505 44.8682 5.86702 46.3018 6.41206 47.6399C6.95711 48.978 7.76422 50.1936 8.78594 51.2153C9.80767 52.2369 11.0234 53.044 12.3616 53.589C13.6998 54.134 15.1334 54.406 16.5783 54.3889L19.9161 54.3514L22.2488 56.7364C23.2583 57.7695 24.4641 58.5903 25.7954 59.1507C27.1266 59.7111 28.5564 59.9998 30.0009 59.9998C31.4453 59.9998 32.8751 59.7111 34.2064 59.1507C35.5376 58.5903 36.7434 57.7695 37.7529 56.7364L40.0856 54.3476L43.4235 54.3889C44.8683 54.406 46.302 54.134 47.6402 53.589C48.9783 53.044 50.194 52.2369 51.2158 51.2153C52.2375 50.1936 53.0446 48.978 53.5896 47.6399C54.1347 46.3018 54.4067 44.8682 54.3896 43.4234L54.3521 40.0858L56.7373 37.7532C57.7704 36.7438 58.5913 35.5381 59.1517 34.2069C59.7121 32.8758 60.0009 31.446 60.0009 30.0017C60.0009 28.5574 59.7121 27.1276 59.1517 25.7964C58.5913 24.4653 57.7704 23.2596 56.7373 22.2501L54.3483 19.9175L54.3896 16.5799C54.4067 15.1352 54.1347 13.7016 53.5896 12.3635C53.0446 11.0254 52.2375 9.80975 51.2158 8.78809C50.194 7.76643 48.9783 6.95937 47.6402 6.41436C46.302 5.86935 44.8683 5.5974 43.4235 5.6145L40.0856 5.652L37.7529 3.26691V3.26316ZM38.8292 25.704L27.5781 36.9544C27.4039 37.1291 27.197 37.2676 26.9692 37.3621C26.7414 37.4567 26.4971 37.5053 26.2505 37.5053C26.0038 37.5053 25.7596 37.4567 25.5318 37.3621C25.304 37.2676 25.097 37.1291 24.9228 36.9544L19.2973 31.3292C19.1229 31.1549 18.9846 30.9479 18.8903 30.7201C18.7959 30.4924 18.7474 30.2482 18.7474 30.0017C18.7474 29.7551 18.7959 29.511 18.8903 29.2832C18.9846 29.0554 19.1229 28.8485 19.2973 28.6741C19.4716 28.4998 19.6786 28.3615 19.9064 28.2672C20.1342 28.1728 20.3783 28.1242 20.6249 28.1242C20.8715 28.1242 21.1156 28.1728 21.3434 28.2672C21.5712 28.3615 21.7782 28.4998 21.9525 28.6741L26.2505 32.9755L36.174 23.0489C36.5261 22.6968 37.0037 22.499 37.5016 22.499C37.9996 22.499 38.4771 22.6968 38.8292 23.0489C39.1814 23.401 39.3792 23.8785 39.3792 24.3765C39.3792 24.8744 39.1814 25.3519 38.8292 25.704V25.704Z" fill="#00FF57"/>
</svg>
