<svg width="39" height="52" viewBox="0 0 39 52" fill="none" xmlns="http://www.w3.org/2000/svg">
<path d="M17.0625 33.8H21.9375V10.4H26.8125L19.5 0L12.1875 10.4H17.0625V33.8ZM36.5625 18.2H29.25V23.4H34.125V46.8H4.875V23.4H9.75V18.2H2.4375C1.79103 18.2 1.17105 18.4739 0.713927 18.9615C0.256807 19.4491 0 20.1104 0 20.8V49.4C0 50.0896 0.256807 50.7509 0.713927 51.2385C1.17105 51.7261 1.79103 52 2.4375 52H36.5625C37.209 52 37.829 51.7261 38.2861 51.2385C38.7432 50.7509 39 50.0896 39 49.4V20.8C39 20.1104 38.7432 19.4491 38.2861 18.9615C37.829 18.4739 37.209 18.2 36.5625 18.2Z" fill="white"/>
</svg>
