<svg width="28" height="22" viewBox="0 0 28 22" fill="none" xmlns="http://www.w3.org/2000/svg">
<path d="M12.7273 22C5.698 22 0 17.0753 0 11C0 4.9247 5.698 3.10011e-06 12.7273 3.10011e-06C14.7034 -0.00128001 16.6526 0.395753 18.4201 1.15956C20.1876 1.92336 21.7246 3.0329 22.9091 4.4H19.46C17.9903 3.27994 16.1779 2.5502 14.2402 2.29834C12.3025 2.04649 10.3219 2.28322 8.53604 2.98014C6.75018 3.67705 5.23492 4.80454 4.17209 6.22731C3.10926 7.65007 2.54402 9.30768 2.54418 11.0012C2.54434 12.6948 3.10991 14.3523 4.17301 15.7749C5.23611 17.1975 6.75159 18.3248 8.53758 19.0214C10.3236 19.7181 12.3042 19.9545 14.2419 19.7024C16.1795 19.4503 17.9918 18.7203 19.4613 17.6H22.9104C21.7258 18.9673 20.1885 20.0769 18.4208 20.8407C16.6531 21.6045 14.7036 22.0015 12.7273 22ZM21.6364 15.4V12.1H11.4545V9.9H21.6364V6.6L28 11L21.6364 15.4Z" fill="url(#paint0_linear)"/>
<defs>
<linearGradient id="paint0_linear" x1="14" y1="0" x2="14" y2="22" gradientUnits="userSpaceOnUse">
<stop stop-color="#800DA8"/>
<stop offset="0.515625" stop-color="#4779F6"/>
<stop offset="1" stop-color="#01F2F2"/>
</linearGradient>
</defs>
</svg>
