<svg width="27" height="27" viewBox="0 0 27 27" fill="none" xmlns="http://www.w3.org/2000/svg">
<path d="M22.5 19.1007C21.3606 19.1007 20.3328 19.5009 19.5534 20.1451L8.865 14.5118C8.9478 14.206 9 13.8872 9 13.5618C9 13.2365 8.9478 12.9193 8.865 12.6134L19.44 7.03549C20.2679 7.74047 21.3624 8.13322 22.5 8.13351C24.9822 8.13351 27 6.30998 27 4.06675C27 1.82353 24.9822 0 22.5 0C20.0178 0 18 1.82353 18 4.06675C18 4.3921 18.0522 4.71093 18.135 5.01512L7.56 10.5931C6.73157 9.8888 5.63738 9.49617 4.5 9.49506C2.0178 9.49506 0 11.3186 0 13.5618C0 15.805 2.0178 17.6286 4.5 17.6286C5.63755 17.6283 6.73206 17.2355 7.56 16.5305L18.2484 22.1638C18.1697 22.4546 18.1292 22.7527 18.1278 23.052C18.1282 23.833 18.3847 24.5964 18.8651 25.2457C19.3455 25.8949 20.028 26.4009 20.8266 26.6997C21.6251 26.9984 22.5037 27.0765 23.3513 26.924C24.1989 26.7716 24.9774 26.3954 25.5885 25.8432C26.1996 25.2909 26.6158 24.5873 26.7845 23.8213C26.9532 23.0553 26.8668 22.2613 26.5363 21.5397C26.2057 20.818 25.6458 20.2012 24.9274 19.767C24.209 19.3329 23.3642 19.1011 22.5 19.1007V19.1007Z" fill="#800DA8"/>
</svg>
